PathFileType	4	(X/Y/Z)	./resultDataOpenSim/trcMotMarkerGrf/sub09/qtm-02-04.trc
DataRate	CameraRate	NumFrames	NumMarkers	Units	OrigDataRate	OrigDataStartFrame	OrigNumFrames
250.000000	250.000000	10	24	m	250.000000	58	461
Frame#	Time	L.Toe.Tip			R.Toe.Tip			L.Ankle.Lat			R.Ankle.Lat			L.Ankle.Med			R.Ankle.Med			L.Heel			R.Heel			L.Knee.Lat			R.Knee.Lat			L.Knee.Med			R.Knee.Med			L.Thigh.Upper			R.Thigh.Upper			L.ASIS			R.ASIS			V.Sacral			L.Acromium			R.Acromium			C7			L.Elbow			R.Elbow			L.Wrist.Lat			R.Wrist.Lat
		X1	Y1	Z1	X2	Y2	Z2	X3	Y3	Z3	X4	Y4	Z4	X5	Y5	Z5	X6	Y6	Z6	X7	Y7	Z7	X8	Y8	Z8	X9	Y9	Z9	X10	Y10	Z10	X11	Y11	Z11	X12	Y12	Z12	X13	Y13	Z13	X14	Y14	Z14	X15	Y15	Z15	X16	Y16	Z16	X17	Y17	Z17	X18	Y18	Z18	X19	Y19	Z19	X20	Y20	Z20	X21	Y21	Z21	X22	Y22	Z22	X23	Y23	Z23	X24	Y24	Z24

58	0.228	-1.3310765	0.098730979	-0.064598207	-0.6107889	0.039246731	0.076464938	-1.3463499	0.25488133	-0.10597189	-0.75905991	0.053009443	0.10818484	-1.3223009	0.2373337	-0.013055429	-0.74982786	0.091472711	0.016350289	-1.4064861	0.30234416	-0.057744254	-0.82626135	0.031829563	0.058170417	-0.970123	0.42187117	-0.12640292	-0.72176308	0.5077049	0.16517716	-0.96086689	0.40968218	-0.0007804243	-0.74151966	0.49362575	0.039307992	-0.95079836	0.82922484	-0.14287444	-0.91920768	0.86212593	0.2282942	-0.86038511	0.917819	-0.091703804	-0.84529279	0.94745668	0.14690717	-1.0222397	0.98829679	0.033363708	-0.83620588	1.3817254	-0.12777467	-0.86993578	1.3907016	0.19829971	-0.91874218	1.4402088	0.032913112	-0.95364303	1.0310618	-0.20349848	-1.0307451	1.0636902	0.28619805	-0.76615505	0.83750755	-0.20097767	-0.89646286	0.82731136	0.3208802
59	0.232	-1.3156799	0.10072357	-0.065938576	-0.61077097	0.039245799	0.076310856	-1.3318528	0.25679568	-0.10582513	-0.75824971	0.053027287	0.10739807	-1.3073848	0.23904134	-0.013105011	-0.7495281	0.091453222	0.016226658	-1.392621	0.30382574	-0.057598439	-0.8262358	0.032079069	0.058045986	-0.95565372	0.4231406	-0.1260085	-0.71843606	0.50748362	0.16492761	-0.94640932	0.41059933	0.00034121544	-0.73872747	0.49351814	0.039183124	-0.94408314	0.83053498	-0.14276776	-0.91240173	0.86385804	0.22845485	-0.8541115	0.91946512	-0.091663721	-0.83848972	0.94888944	0.14688544	-1.0159521	0.99001875	0.033875666	-0.83001132	1.3831215	-0.12783009	-0.86283245	1.392168	0.19838882	-0.91213738	1.4419424	0.033149659	-0.948326	1.032762	-0.2027167	-1.0235545	1.0650083	0.28677546	-0.76281848	0.83742256	-0.20118621	-0.88791939	0.82886109	0.32004256
60	0.236	-1.299941	0.10245958	-0.067121034	-0.61078726	0.039255088	0.076187843	-1.3171956	0.25836781	-0.1056715	-0.75751848	0.053061984	0.10666682	-1.291967	0.24044018	-0.013149638	-0.74925693	0.091443708	0.016126169	-1.3786729	0.30496533	-0.057484528	-0.82622271	0.032321359	0.057914951	-0.9411122	0.42461782	-0.12575906	-0.71532649	0.50720909	0.16472021	-0.93214953	0.4116634	0.0015045037	-0.7360413	0.4934259	0.039208391	-0.93741999	0.83199046	-0.1426657	-0.90577364	0.86565476	0.2286061	-0.84792353	0.92121833	-0.091620206	-0.83234143	0.95038056	0.14679487	-1.0096745	0.99177853	0.034386804	-0.82393453	1.384603	-0.1279013	-0.8558129	1.3937174	0.19847901	-0.90553459	1.4437207	0.033420463	-0.94301863	1.0345583	-0.20190527	-1.01638	1.066402	0.28730733	-0.75958377	0.83744545	-0.20139596	-0.8794119	0.83051045	0.31917915
61	0.24	-1.283942	0.10394129	-0.068080712	-0.61084248	0.039267955	0.076094032	-1.3024097	0.25962664	-0.10551369	-0.75738605	0.053118124	0.10642835	-1.2768826	0.24143242	-0.012942224	-0.74911014	0.091437141	0.016039876	-1.3646299	0.30575784	-0.057377217	-0.82622989	0.032540478	0.057786388	-0.92663023	0.4262582	-0.12538278	-0.71245561	0.5069453	0.16456355	-0.9177952	0.41290349	0.0027158892	-0.73357449	0.49336367	0.039498777	-0.93076036	0.83358968	-0.14253471	-0.89932951	0.8675002	0.2287541	-0.84174705	0.92308067	-0.09154795	-0.82677485	0.95193626	0.1466549	-1.0034234	0.99360843	0.03483608	-0.81789251	1.3861751	-0.12796119	-0.84886864	1.395353	0.19856196	-0.89897172	1.4455305	0.03367127	-0.93774854	1.0364536	-0.20109448	-1.0092266	1.0678754	0.28780113	-0.75644258	0.83758681	-0.20159318	-0.87095504	0.83226576	0.31831124
62	0.244	-1.2677289	0.10517337	-0.068767492	-0.61093764	0.039286037	0.076036947	-1.2875177	0.26059953	-0.10535254	-0.75780443	0.053189591	0.10664263	-1.2627318	0.24211339	-0.012400744	-0.74914947	0.09142496	0.015956441	-1.3504472	0.30618722	-0.057311055	-0.82626321	0.032720624	0.057667825	-0.91235637	0.42803907	-0.12468354	-0.7098303	0.50672717	0.16450181	-0.90317677	0.41432374	0.0039775212	-0.73137459	0.49334399	0.040040006	-0.92408686	0.83533257	-0.14237129	-0.8931019	0.86938373	0.22890013	-0.83555254	0.92505553	-0.091437002	-0.82133773	0.95356281	0.1465277	-0.99721914	0.99553173	0.035177347	-0.81178016	1.3878412	-0.12798966	-0.84199629	1.3970755	0.19863854	-0.8924577	1.4473699	0.033898903	-0.9325227	1.0384509	-0.20028695	-1.0020982	1.0694283	0.28826736	-0.75338133	0.83785779	-0.20177059	-0.86256665	0.83412636	0.31745185
63	0.248	-1.2512345	0.10618382	-0.069212358	-0.61106595	0.03931248	0.076028138	-1.2725271	0.26129123	-0.10518717	-0.75834493	0.053276559	0.1069607	-1.2489824	0.24268793	-0.01179441	-0.74930995	0.091414135	0.01587789	-1.3361124	0.30623599	-0.057322548	-0.82632052	0.032849376	0.057559217	-0.89832162	0.42998294	-0.12369117	-0.70742594	0.50655545	0.16458129	-0.88842811	0.41592149	0.0052911186	-0.72934388	0.49335787	0.040646185	-0.91741676	0.83720319	-0.14218525	-0.88711479	0.87129051	0.22904228	-0.82938301	0.92713704	-0.091299312	-0.8156488	0.95524286	0.14646776	-0.9910714	0.99754726	0.035411379	-0.80561453	1.3895993	-0.12799294	-0.83519645	1.3988806	0.19871753	-0.8859856	1.4492438	0.03409943	-0.92733757	1.0405563	-0.19947632	-0.99499518	1.0710546	0.28871206	-0.75040224	0.8382596	-0.20192648	-0.85425384	0.83608644	0.31660005
64	0.252	-1.2343257	0.10701191	-0.069505101	-0.6112163	0.039347135	0.07607317	-1.257426	0.26168883	-0.10501905	-0.75873483	0.053381697	0.10717079	-1.2346921	0.24322926	-0.011407432	-0.74947168	0.091418857	0.015825667	-1.321696	0.3059001	-0.057405444	-0.82638589	0.032923498	0.057446336	-0.88443969	0.43213186	-0.12252862	-0.70520516	0.50641618	0.16480377	-0.87399063	0.4177304	0.0066608384	-0.72731106	0.49337836	0.041119067	-0.91078158	0.83917317	-0.14198723	-0.88135736	0.87319479	0.22917562	-0.82332329	0.92930256	-0.091150778	-0.80969839	0.95694018	0.1464842	-0.98497332	0.99962032	0.035586666	-0.79954466	1.3914419	-0.12799509	-0.8284728	1.4007602	0.19880823	-0.8795455	1.4511549	0.034244954	-0.92218908	1.0427668	-0.19866085	-0.98791878	1.0727439	0.28913549	-0.74749906	0.83877932	-0.20205055	-0.84601176	0.83813861	0.31575297
65	0.256	-1.2169407	0.10767269	-0.069702046	-0.6113804	0.039389644	0.076168534	-1.2421977	0.26178185	-0.10485069	-0.75896364	0.053498554	0.10727663	-1.2196026	0.24364378	-0.011235945	-0.74957568	0.091447183	0.015820912	-1.307285	0.30518781	-0.057532244	-0.82643603	0.032953361	0.057306361	-0.87063181	0.43450857	-0.12127076	-0.70316081	0.50628895	0.16512131	-0.86023614	0.41981695	0.0080718962	-0.72516821	0.49338755	0.041393999	-0.90421721	0.84122318	-0.14179852	-0.87577456	0.87507106	0.22930078	-0.81743103	0.9315244	-0.090988805	-0.80367267	0.95862826	0.14656096	-0.97889197	1.0016937	0.035758717	-0.79366291	1.3933566	-0.12800921	-0.82182458	1.4027053	0.19891543	-0.8731312	1.4531003	0.034306412	-0.91707548	1.0450652	-0.19784478	-0.98086872	1.0744866	0.28953414	-0.74464363	0.83940167	-0.2021262	-0.83783335	0.84027579	0.31491449
66	0.26	-1.1991371	0.10815354	-0.069792352	-0.61155786	0.039441994	0.076307354	-1.2268406	0.26157051	-0.10467481	-0.75909989	0.05360561	0.10734649	-1.2041218	0.2438145	-0.011102827	-0.74964238	0.091501189	0.015865231	-1.292897	0.30410444	-0.057684607	-0.82646215	0.032961089	0.057133573	-0.85693096	0.43709179	-0.1199333	-0.70131603	0.50615285	0.16547624	-0.84707202	0.42224812	0.009454039	-0.72290136	0.49339317	0.041494081	-0.89775518	0.84335037	-0.14165402	-0.87028372	0.8769116	0.2294286	-0.81169461	0.93378559	-0.090791943	-0.79770808	0.96030426	0.14668675	-0.97275662	1.0037245	0.035943391	-0.78790578	1.3953293	-0.12802789	-0.81524044	1.4047084	0.19903956	-0.86673672	1.4550702	0.034300567	-0.91199668	1.0474304	-0.19703495	-0.97383918	1.0762753	0.28990485	-0.74181486	0.84012054	-0.20215072	-0.82971259	0.84249233	0.31409108
67	0.264	-1.1810159	0.10843764	-0.069742271	-0.61175409	0.039505963	0.076485526	-1.2113598	0.26106318	-0.1044773	-0.75918956	0.053675323	0.107426	-1.1886381	0.24369936	-0.010887427	-0.74971678	0.091579879	0.015946557	-1.2784906	0.30264557	-0.057848259	-0.82648007	0.032970814	0.056956383	-0.8434051	0.43981157	-0.11850624	-0.69968122	0.50599856	0.16584044	-0.8340612	0.42507282	0.010715923	-0.72053336	0.49341876	0.041434051	-0.89136763	0.84555698	-0.14156271	-0.8648128	0.87872574	0.22956853	-0.80604718	0.93608113	-0.090534914	-0.79183827	0.96197687	0.14685952	-0.9664846	1.0057246	0.036107094	-0.78216834	1.3973473	-0.12803812	-0.80870887	1.4067622	0.19917974	-0.86034855	1.4570479	0.034300591	-0.9069522	1.04985	-0.19623623	-0.96682341	1.0781037	0.29024922	-0.7390124	0.84093673	-0.20213788	-0.82163502	0.84478696	0.31328672
